<?xml version="1.0" encoding="utf-8"?>
<?xml-stylesheet type="text/xsl" href="rss1.xsl"?>
<rss version="2.0" xmlns:atom="http://www.w3.org/2005/Atom" xmlns:content="http://purl.org/rss/1.0/modules/content/" xmlns:dc="http://purl.org/dc/elements/1.1/" xmlns:media="http://search.yahoo.com/mrss/">
<channel>
 <title>Getty</title>
 <link>http://www.gettyimg.com/</link>
 <atom:link href="http://www.gettyimg.com/" rel="self" type="application/rss+xml" />

 
                <item>
                <title><![CDATA[【Albums (lossless)】FLAC - Kylie Minogue - Fever | CD Rip | .FLAC 16bits ／ 44.1kHz]]></title>
                <link><![CDATA[https://sharemania.us/threads/kylie-minogue-fever-cd-rip-flac-16bits-%EF%BC%8F-44-1khz.249071/]]></link>
                <description><![CDATA[<article>
<blockquote class="messageText SelectQuoteContainer ugc baseHtml">
<div style="text-align: center"><img src="https://i.imgur.com/EpPwONP.jpeg" class="bbCodeImage LbImage" alt="[​IMG]" data-url="https://i.imgur.com/EpPwONP.jpeg" style=""> <br>
<br>
<span style="font-family: 'Book Antiqua'"><span style="font-size: 12px"><span style="color: #000000">
<div class="ToggleTriggerAnchor bbCodeSpoilerContainer">
<button type="button" class="button bbCodeSpoilerButton ToggleTrigger Tooltip JsOnly" data-target="> .SpoilerTarget"><span>Spoiler: <span class="SpoilerTitle">.log</span></span></button>
<div class="SpoilerTarget bbCodeSpoilerText">Exact Audio Copy V0.99 prebeta 4 from 23. January 2008 <br>
<br>
EAC extraction logfile from 11. February 2009, 23:59 <br>
<br>
Kylie Minogue / Fever <br>
<br>
Used drive : ATAPI DVD A DH20A4P Adapter: 2 ID: 1 <br>
<br>
Read mode : Secure <br>
Utilize accurate stream : Yes <br>
Defeat audio cache : Yes <br>
Make use of C2 pointers : No <br>
<br>
Read offset correction : 6 <br>
Overread into Lead-In and Lead-Out : No <br>
Fill up missing offset samples with silence : Yes <br>
Delete leading and trailing silent blocks : No <br>
Null samples used in CRC calculations : Yes <br>
Used interface : Installed external ASPI interface <br>
Gap handling : Appended to previous track <br>
<br>
Used output format : User Defined Encoder <br>
Selected bitrate : 320 kBit/s <br>
Quality : High <br>
Add ID3 tag : No <br>
Command line compressor : C:\Program Files\Exact Audio Copy\Flac\flac.exe <br>
Additional command line options : -V -8 -T "artist=%a" -T "title=%t" -T "album=%g" -T "date=%y" -T "tracknumber=%n" -T "genre=%m" %s <br>
<br>
<br>
TOC of the extracted CD <br>
<br>
Track | Start | Length | Start sector | End sector <br>
--------------------------------------------------------- <br>
1 | 0:00.00 | 4:41.63 | 0 | 21137 <br>
2 | 4:41.63 | 3:59.50 | 21138 | 39112 <br>
3 | 8:41.38 | 3:51.21 | 39113 | 56458 <br>
4 | 12:32.59 | 3:31.62 | 56459 | 72345 <br>
5 | 16:04.46 | 2:49.54 | 72346 | 85074 <br>
6 | 18:54.25 | 3:47.13 | 85075 | 102112 <br>
7 | 22:41.38 | 4:31.66 | 102113 | 122503 <br>
8 | 27:13.29 | 3:20.68 | 122504 | 137571 <br>
9 | 30:34.22 | 3:25.34 | 137572 | 152980 <br>
10 | 33:59.56 | 3:49.30 | 152981 | 170185 <br>
11 | 37:49.11 | 3:50.03 | 170186 | 187438 <br>
12 | 41:39.14 | 3:58.09 | 187439 | 205297 <br>
13 | 45:37.23 | 4:27.56 | 205298 | 225378 <br>
<br>
<br>
Track 1 <br>
<br>
Filename C:\eacrips\Kylie Minogue - 2001 - Fever\01 - More More More.wav <br>
<br>
Pre-gap length 0:00:02.00 <br>
<br>
Peak level 98.0 % <br>
Track quality 100.0 % <br>
Test CRC CBFC3E0E <br>
Copy CRC CBFC3E0E <br>
Accurately ripped (confidence 6) [6E302EAD] <br>
Copy OK <br>
<br>
Track 2 <br>
<br>
Filename C:\eacrips\Kylie Minogue - 2001 - Fever\02 - Love At First Sight.wav <br>
<br>
Pre-gap length 0:00:00.77 <br>
<br>
Peak level 98.0 % <br>
Track quality 100.0 % <br>
Test CRC FE6833CC <br>
Copy CRC FE6833CC <br>
Accurately ripped (confidence 5) [D89FC58F] <br>
Copy OK <br>
<br>
Track 3 <br>
<br>
Filename C:\eacrips\Kylie Minogue - 2001 - Fever\03 - Can't Get You Out Of My Head.wav <br>
<br>
Pre-gap length 0:00:00.69 <br>
<br>
Peak level 98.0 % <br>
Track quality 100.0 % <br>
Test CRC D5453D76 <br>
Copy CRC D5453D76 <br>
Accurately ripped (confidence 6) [37547B31] <br>
Copy OK <br>
<br>
Track 4 <br>
<br>
Filename C:\eacrips\Kylie Minogue - 2001 - Fever\04 - Fever.wav <br>
<br>
Pre-gap length 0:00:00.77 <br>
<br>
Peak level 97.9 % <br>
Track quality 99.9 % <br>
Test CRC 61A5C6FF <br>
Copy CRC 61A5C6FF <br>
Accurately ripped (confidence 6) [D944DE87] <br>
Copy OK <br>
<br>
Track 5 <br>
<br>
Filename C:\eacrips\Kylie Minogue - 2001 - Fever\05 - Give It To Me.wav <br>
<br>
Pre-gap length 0:00:00.74 <br>
<br>
Peak level 98.0 % <br>
Track quality 100.0 % <br>
Test CRC 44DF6EFF <br>
Copy CRC 44DF6EFF <br>
Accurately ripped (confidence 5) [584165C9] <br>
Copy OK <br>
<br>
Track 6 <br>
<br>
Filename C:\eacrips\Kylie Minogue - 2001 - Fever\06 - Fragile.wav <br>
<br>
Pre-gap length 0:00:00.74 <br>
<br>
Peak level 98.0 % <br>
Track quality 100.0 % <br>
Test CRC F4A1B5EF <br>
Copy CRC F4A1B5EF <br>
Accurately ripped (confidence 6) [6BCD2607] <br>
Copy OK <br>
<br>
Track 7 <br>
<br>
Filename C:\eacrips\Kylie Minogue - 2001 - Fever\07 - Come Into My World.wav <br>
<br>
Pre-gap length 0:00:00.76 <br>
<br>
Peak level 98.0 % <br>
Track quality 100.0 % <br>
Test CRC 6CD1F203 <br>
Copy CRC 6CD1F203 <br>
Accurately ripped (confidence 6) [8C6D864F] <br>
Copy OK <br>
<br>
Track 8 <br>
<br>
Filename C:\eacrips\Kylie Minogue - 2001 - Fever\08 - In Your Eyes.wav <br>
<br>
Pre-gap length 0:00:00.77 <br>
<br>
Peak level 98.0 % <br>
Track quality 99.9 % <br>
Test CRC 82D70A0C <br>
Copy CRC 82D70A0C <br>
Accurately ripped (confidence 6) [6A1176A1] <br>
Copy OK <br>
<br>
Track 9 <br>
<br>
Filename C:\eacrips\Kylie Minogue - 2001 - Fever\09 - Dancefloor.wav <br>
<br>
Pre-gap length 0:00:00.76 <br>
<br>
Peak level 98.0 % <br>
Track quality 100.0 % <br>
Test CRC 9D63E7B3 <br>
Copy CRC 9D63E7B3 <br>
Accurately ripped (confidence 4) [FE99211F] <br>
Copy OK <br>
<br>
Track 10 <br>
<br>
Filename C:\eacrips\Kylie Minogue - 2001 - Fever\10 - Love Affair.wav <br>
<br>
Pre-gap length 0:00:00.68 <br>
<br>
Peak level 98.0 % <br>
Track quality 100.0 % <br>
Test CRC 7795231D <br>
Copy CRC 7795231D <br>
Accurately ripped (confidence 5) [AACB6D9E] <br>
Copy OK <br>
<br>
Track 11 <br>
<br>
Filename C:\eacrips\Kylie Minogue - 2001 - Fever\11 - Your Love.wav <br>
<br>
Peak level 98.0 % <br>
Track quality 100.0 % <br>
Test CRC 7ABA002A <br>
Copy CRC 7ABA002A <br>
Accurately ripped (confidence 5) [378ABE40] <br>
Copy OK <br>
<br>
Track 12 <br>
<br>
Filename C:\eacrips\Kylie Minogue - 2001 - Fever\12 - Burning Up.wav <br>
<br>
Peak level 92.6 % <br>
Track quality 100.0 % <br>
Test CRC 9E3BBF12 <br>
Copy CRC 9E3BBF12 <br>
Accurately ripped (confidence 6) [166A8CD5] <br>
Copy OK <br>
<br>
Track 13 <br>
<br>
Filename C:\eacrips\Kylie Minogue - 2001 - Fever\13 - Tightrope.wav <br>
<br>
Pre-gap length 0:00:00.77 <br>
<br>
Peak level 99.4 % <br>
Track quality 100.0 % <br>
Test CRC BC744951 <br>
Copy CRC BC744951 <br>
Accurately ripped (confidence 5) [EE39E4E2] <br>
Copy OK <br>
<br>
<br>
All tracks accurately ripped <br>
<br>
No errors occurred <br>
<br>
End of status report</div>
</div><br>
<div class="bbCodeBlock bbCodeVfcHH HiddenContent">
<div class="attribution type">Hidden Content:</div>
<blockquote>You must reply before you can see the hidden data contained here.</blockquote>
</div></span></span></span><br>
​</div>
<div class="messageTextEndMarker">&nbsp;</div>
</blockquote>
</article>]]></description>
                <author><![CDATA[Nuric]]></author>
                </item>

                </channel></rss>